#!OML:ASF H:\MichaelJackson\Top Level 1\Subject 1\Session 1\male.ASF
:FULLY-SPECIFIED
:DEGREES
329
root -16.5635 16.8783 -11.4409 5.8091 13.6192 -10.5524
lowerback 2.83815 3.69039 6.74503
upperback 2.06104 5.06782 4.14825
thorax 0.746805 2.58423 0.415429
lowerneck -6.50196 -5.27082 -2.12688
upperneck 3.58267 -6.94664 1.81646
head 2.40275 -3.43554 0.653948
rclavicle 9.81996e-014 5.36719e-014
rhumerus -28.8775 -3.18283 -91.8105
rradius 27.2564
rwrist 19.1181
rhand -20.5505 -20.203
rfingers 7.12502
rthumb 5.80832 -770.103
lclavicle 9.81996e-014 5.36719e-014
lhumerus -79.1473 -2.65918 106.414
lradius 70.318
lwrist 22.0639
lhand -4.22396 15.0762
lfingers 7.12502
lthumb 21.5389 43.8986
rfemur -6.67327 -1.34759 30.4572
rtibia 23.7435
rfoot -24.3472 0.861388
rtoes 9.7701
lfemur -52.5472 -13.1878 -3.04077
ltibia 44.9934
lfoot 9.62215 3.98963
ltoes 12.6503
330
root -16.5526 16.8575 -11.3529 5.78081 13.3292 -10.6159
lowerback 2.79627 3.65231 6.79558
upperback 2.10138 5.00993 4.04631
thorax 0.823241 2.55848 0.289233
lowerneck -6.34321 -5.12936 -2.06161
upperneck 3.50505 -6.76222 1.75829
head 2.33866 -3.34573 0.638052
rclavicle 2.38542e-014 4.25399e-014
rhumerus -29.6342 0.0627341 -93.187
rradius 29.0605
rwrist 18.1035
rhand -20.0779 -18.418
rfingers 7.12502
rthumb 6.26459 -768.305
lclavicle 2.38542e-014 4.25399e-014
lhumerus -78.5714 -2.6493 106.379
lradius 69.6303
lwrist 22.1103
lhand -5.374 15.1582
lfingers 7.12502
lthumb 20.434 44.103
rfemur -6.29477 -1.58334 30.4718
rtibia 23.7425
rfoot -24.61 1.36141
rtoes 10.0834
lfemur -52.0289 -13.008 -2.66885
ltibia 44.9731
lfoot 9.21426 3.88682
ltoes 11.9128
331
root -16.5403 16.8353 -11.2645 5.76137 13.0647 -10.6797
lowerback 2.77271 3.60983 6.85758
upperback 2.13286 4.94899 3.94469
thorax 0.880805 2.53086 0.155256
lowerneck -6.20416 -4.99841 -1.97834
upperneck 3.45752 -6.59218 1.67938
head 2.28727 -3.26314 0.610699
rclavicle 7.93151e-014 7.63333e-014
rhumerus -30.465 3.04651 -94.4685
rradius 31.0044
rwrist 17.0982
rhand -19.5883 -17.0516
rfingers 7.12502
rthumb 6.73725 -766.924
lclavicle 7.93151e-014 7.63333e-014
lhumerus -77.8518 -2.73337 106.333
lradius 68.7868
lwrist 21.9002
lhand -6.4663 15.2623
lfingers 7.12502
lthumb 19.384 44.3161
rfemur -5.95143 -1.76254 30.4872
rtibia 23.7925
rfoot -24.866 1.7878
rtoes 10.4819
lfemur -51.5125 -12.8641 -2.26929
ltibia 45.0301
lfoot 8.57288 3.5508
ltoes 10.6526
332
root -16.5271 16.8119 -11.1756 5.75746 12.8214 -10.7389
lowerback 2.75603 3.56131 6.90491
upperback 2.16386 4.88062 3.8535
thorax 0.931111 2.49927 0.0393365
lowerneck -6.10923 -4.87494 -1.89597
upperneck 3.43634 -6.43121 1.59544
head 2.25312 -3.18484 0.579814
rclavicle 4.94974e-014 -2.78299e-014
rhumerus -31.3388 5.73918 -95.6305
rradius 33.0486
rwrist 16.1744
rhand -19.1894 -16.0712
rfingers 7.12502
rthumb 7.12237 -765.931
lclavicle 4.94974e-014 -2.78299e-014
lhumerus -76.9903 -2.87524 106.255
lradius 67.8061
lwrist 21.4097
lhand -7.45301 15.3469
lfingers 7.12502
lthumb 18.4351 44.4934
rfemur -5.65343 -1.857 30.5062
rtibia 23.9038
rfoot -25.1176 2.09577
rtoes 10.8889
lfemur -50.9966 -12.7284 -1.86852
ltibia 45.1439
lfoot 7.61682 3.02207
ltoes 8.7112
333
root -16.5131 16.7875 -11.0863 5.78544 12.6034 -10.7766
lowerback 2.74908 3.50627 6.93068
upperback 2.1802 4.80526 3.75501
thorax 0.958864 2.46329 -0.0738286
lowerneck -6.03312 -4.75894 -1.79832
upperneck 3.4205 -6.28155 1.51999
head 2.22448 -3.11155 0.547875
rclavicle -1.09332e-015 2.54444e-014
rhumerus -32.2494 8.10431 -96.6836
rradius 35.1389
rwrist 15.388
rhand -18.8283 -15.4382
rfingers 7.12502
rthumb 7.47093 -765.286
lclavicle -1.09332e-015 2.54444e-014
lhumerus -76.0388 -3.0637 106.109
lradius 66.7432
lwrist 20.626
lhand -8.2461 15.4152
lfingers 7.12502
lthumb 17.672 44.6322
rfemur -5.41179 -1.86889 30.5158
rtibia 24.075
rfoot -25.3697 2.28021
rtoes 11.2786
lfemur -50.49 -12.5823 -1.50103
ltibia 45.2958
lfoot 6.30914 2.39125
ltoes 6.3133
334
root -16.4982 16.7629 -10.9963 5.8513 12.3968 -10.7891
lowerback 2.74533 3.45187 6.93039
upperback 2.17989 4.7318 3.64376
thorax 0.966219 2.42727 -0.18697
lowerneck -5.98627 -4.65608 -1.66758
upperneck 3.41555 -6.15169 1.44503
head 2.20424 -3.04743 0.508749
rclavicle 5.36719e-015 2.0276e-014
rhumerus -33.1781 10.119 -97.621
rradius 37.228
rwrist 14.8104
rhand -18.526 -15.0756
rfingers 7.12502
rthumb 7.76265 -764.913
lclavicle 5.36719e-015 2.0276e-014
lhumerus -75.0211 -3.28952 105.876
lradius 65.6181
lwrist 19.5768
lhand -8.83751 15.5542
lfingers 7.12502
lthumb 17.1028 44.8215
rfemur -5.22552 -1.78868 30.5121
rtibia 24.294
rfoot -25.6187 2.33872
rtoes 11.6258
lfemur -49.9913 -12.3954 -1.19011
ltibia 45.4651
lfoot 4.70816 1.74518
ltoes 3.75594
335
root -16.4824 16.7384 -10.9057 5.95916 12.1994 -10.7658
lowerback 2.7292 3.38381 6.87976
upperback 2.18302 4.63786 3.5342
thorax 0.978287 2.38067 -0.269903
lowerneck -5.98086 -4.54448 -1.56267
upperneck 3.39133 -6.00903 1.4069
head 2.18767 -2.9761 0.485249
rclavicle -3.36443e-014 3.26007e-014
rhumerus -34.0769 11.8581 -98.432
rradius 39.2603
rwrist 14.445
rhand -18.3335 -14.8858
rfingers 7.12502
rthumb 7.94846 -764.716
lclavicle -3.36443e-014 3.26007e-014
lhumerus -73.9178 -3.48135 105.548
lradius 64.4522
lwrist 18.3042
lhand -9.28327 15.5708
lfingers 7.12502
lthumb 16.6737 44.8746
rfemur -5.08838 -1.61673 30.4853
rtibia 24.5488
rfoot -25.8689 2.26055
rtoes 11.8475
lfemur -49.5031 -12.1488 -0.965292
ltibia 45.6301
lfoot 2.91179 1.12872
ltoes 1.2312
